<svg width="24" height="25" viewBox="0 0 24 25" fill="none" xmlns="http://www.w3.org/2000/svg">
<path fill-rule="evenodd" clip-rule="evenodd" d="M12 1.20081C12.2652 1.20081 12.5196 1.30616 12.7071 1.4937C12.8946 1.68124 13 1.93559 13 2.20081V4.65431C14.1255 4.74381 15.2085 4.98281 16.227 5.35131L17.486 3.17431C17.6189 2.94468 17.8375 2.77714 18.0937 2.70844C18.35 2.63973 18.623 2.67547 18.853 2.80781C18.9668 2.87328 19.0665 2.96055 19.1465 3.06464C19.2265 3.16872 19.2852 3.28757 19.3192 3.41437C19.3532 3.54116 19.3619 3.67342 19.3447 3.80357C19.3275 3.93372 19.2848 4.05919 19.219 4.17281L18.054 6.18781C18.9249 6.67673 19.7318 7.27159 20.4565 7.95881L22.0285 6.38881C22.2162 6.20123 22.4707 6.09578 22.736 6.0956C23.0014 6.09541 23.256 6.2005 23.444 6.38781C23.835 6.77781 23.8355 7.41031 23.4445 7.80081L21.789 9.45431C22.6283 10.5717 23.2578 11.8321 23.647 13.1743C23.7849 13.6509 23.7849 14.1567 23.647 14.6333C22.219 19.5933 17.53 23.2008 11.9995 23.2008C6.472 23.2008 1.7855 19.5978 0.353499 14.6418C0.215915 14.1651 0.215741 13.6591 0.352999 13.1823C0.741117 11.8404 1.36946 10.58 2.2075 9.46231L0.552999 7.80031C0.460379 7.70731 0.387012 7.59695 0.337101 7.47556C0.287189 7.35417 0.261713 7.22412 0.262131 7.09287C0.262549 6.96162 0.288853 6.83174 0.339537 6.71067C0.390221 6.5896 0.464288 6.47971 0.557499 6.38731C0.745922 6.20061 1.00068 6.09625 1.26593 6.09709C1.53118 6.09794 1.78527 6.20392 1.9725 6.39181L3.539 7.96481C4.26315 7.27733 5.06962 6.68214 5.94 6.19281L4.7795 4.16931C4.71409 4.05543 4.67181 3.92978 4.65506 3.79953C4.63831 3.66929 4.64743 3.53702 4.68189 3.4103C4.71636 3.28359 4.77549 3.16492 4.8559 3.0611C4.93632 2.95729 5.03643 2.87036 5.1505 2.80531C5.38092 2.67386 5.65407 2.63915 5.91004 2.70879C6.16602 2.77843 6.38393 2.94674 6.516 3.17681L7.765 5.35531C8.80699 4.97753 9.8951 4.74175 11 4.65431V2.20081C11 1.93559 11.1054 1.68124 11.2929 1.4937C11.4804 1.30616 11.7348 1.20081 12 1.20081ZM12 6.61581C11.988 6.61581 11.9762 6.61547 11.9645 6.61481C10.4955 6.61981 9.103 6.92681 7.8485 7.47381L7.8325 7.48331C7.77057 7.5187 7.70503 7.54736 7.637 7.56881C6.38039 8.14975 5.25663 8.98283 4.3355 10.0163C4.3155 10.0413 4.29383 10.0656 4.2705 10.0893C3.34676 11.1446 2.66545 12.3894 2.2745 13.7363C2.24144 13.8506 2.24144 13.972 2.2745 14.0863C3.456 18.1728 7.3475 21.2008 12 21.2008C16.6545 21.2008 20.548 18.1683 21.726 14.0798C21.7593 13.9652 21.7593 13.8434 21.726 13.7288C21.3387 12.3993 20.6684 11.1694 19.761 10.1233C19.71 10.0762 19.6641 10.0239 19.624 9.96731C18.6971 8.94098 17.5693 8.11594 16.3105 7.54331C16.2683 7.52776 16.2272 7.50938 16.1875 7.48831C14.8676 6.90906 13.4414 6.61189 12 6.61581ZM6.6125 13.9073C6.6125 10.9358 9.025 8.52881 11.999 8.52881C14.973 8.52881 17.386 10.9358 17.386 13.9073C17.386 16.8788 14.9735 19.2853 11.999 19.2853C9.0245 19.2853 6.6125 16.8783 6.6125 13.9073Z" fill="#FF5E00"/>
</svg>
