<svg width="24" height="25" viewBox="0 0 24 25" fill="none" xmlns="http://www.w3.org/2000/svg">
<path d="M23.9917 20.1231C24.0827 19.8772 13.6363 11.9894 13.6363 11.9894C12.3285 11.0243 11.6406 11.0091 10.3474 11.9894C10.3474 11.9894 -0.0838259 19.8708 0.00397095 20.1133L0.00186157 20.1151C0.0029397 20.1172 0.00467407 20.1187 0.0061272 20.1206C0.0945921 20.3617 0.223273 20.5861 0.386705 20.7842C0.455752 20.8679 0.538955 20.938 0.618971 21.0109L0.61508 21.0139C0.621455 21.0196 0.62994 21.0222 0.636315 21.0279C0.975455 21.3304 1.40314 21.5264 1.87827 21.5823C1.88572 21.5832 1.89172 21.5871 1.89917 21.588H1.92786C2.0001 21.5948 2.06877 21.6122 2.14274 21.6122H21.864C22.8351 21.6122 23.6579 21.0015 23.9847 20.1454C23.9886 20.1391 23.9946 20.1345 23.9982 20.1279L23.9917 20.1231Z" fill="#B7BCC3"/>
<path d="M12.0062 11.0841L0.0570068 20.046V7.34998C0.0570068 6.11248 1.05999 5.1095 2.29749 5.1095H21.715C22.9525 5.1095 23.9555 6.11248 23.9555 7.34998V20.046L12.0062 11.0841Z" fill="#B7BCC3"/>
<path d="M0.19635 6.57097L10.3985 14.5842C11.6861 15.5344 12.3634 15.5494 13.6367 14.5842L23.8228 6.58367C23.6461 6.26333 23.3815 6.01025 23.0789 5.80845L23.2191 5.69867C22.8771 5.38738 22.44 5.18558 21.9548 5.13345L2.05846 5.13416C1.57462 5.18558 1.1368 5.38808 0.795553 5.69867L0.934631 5.80709C0.635569 6.00608 0.373444 6.2548 0.19635 6.57097Z" fill="#EDECE6"/>
<path d="M0.193018 6.58775C0.10344 6.82986 10.3889 14.5961 10.3889 14.5961C11.6765 15.5463 12.3538 15.5613 13.6272 14.5961C13.6272 14.5961 23.8976 6.83615 23.8111 6.59736L23.8132 6.59563C23.8122 6.59352 23.8105 6.59216 23.8091 6.59024C23.722 6.35282 23.5953 6.13189 23.4343 5.93685C23.3664 5.8544 23.2844 5.7854 23.2057 5.71358L23.2095 5.71063C23.2033 5.70505 23.1949 5.70243 23.1886 5.69685C22.8547 5.399 22.4336 5.20607 21.9658 5.15099C21.9585 5.1501 21.9526 5.1463 21.9453 5.14541H21.917C21.8459 5.13861 21.7783 5.12155 21.7055 5.12155H2.28796C1.3318 5.12155 0.521706 5.72286 0.200003 6.56572C0.196159 6.572 0.190253 6.57655 0.186737 6.58297L0.193018 6.58775Z" fill="#9F9F9F"/>
</svg>
