<svg width="24" height="25" viewBox="0 0 24 25" fill="none" xmlns="http://www.w3.org/2000/svg">
<path fill-rule="evenodd" clip-rule="evenodd" d="M2.5 9.20083C2.49963 8.83805 2.63074 8.48743 2.86905 8.21391C3.10736 7.94039 3.43673 7.76251 3.79614 7.7132C4.15555 7.6639 4.52065 7.74652 4.82381 7.94575C5.12698 8.14499 5.34767 8.44735 5.445 8.79682C7.392 15.2988 16.603 15.2998 18.554 8.80182C18.6088 8.61178 18.7007 8.43446 18.8243 8.28006C18.9479 8.12566 19.1009 7.99723 19.2743 7.90218C19.4478 7.80712 19.6383 7.7473 19.835 7.72617C20.0317 7.70504 20.2305 7.72302 20.4202 7.77906C20.6099 7.8351 20.7867 7.92811 20.9403 8.05272C21.0939 8.17733 21.2213 8.3311 21.3152 8.50516C21.4092 8.67922 21.4678 8.87014 21.4876 9.06693C21.5075 9.26372 21.4883 9.4625 21.431 9.65183C21.0893 10.8194 20.5395 11.9157 19.808 12.8878L20.768 13.8478C20.9112 13.9863 21.0254 14.1518 21.1039 14.3349C21.1824 14.5179 21.2237 14.7148 21.2254 14.9139C21.227 15.1131 21.189 15.3106 21.1134 15.4949C21.0379 15.6792 20.9265 15.8466 20.7856 15.9874C20.6447 16.1282 20.4771 16.2395 20.2928 16.3148C20.1084 16.3902 19.9108 16.428 19.7117 16.4262C19.5125 16.4244 19.3157 16.3829 19.1327 16.3042C18.9498 16.2255 18.7843 16.1112 18.646 15.9678L17.636 14.9578C17.111 15.3174 16.5516 15.6239 15.966 15.8728L16.209 16.7788C16.3012 17.1594 16.2409 17.5609 16.041 17.8976C15.8411 18.2343 15.5175 18.4795 15.1393 18.5809C14.761 18.6822 14.3582 18.6316 14.0167 18.4399C13.6753 18.2481 13.4224 17.9305 13.312 17.5548L13.061 16.6198C12.356 16.6928 11.644 16.6928 10.939 16.6198L10.689 17.5548C10.5861 17.9391 10.3347 18.2668 9.99024 18.4658C9.64574 18.6648 9.2363 18.7187 8.852 18.6158C8.4677 18.5129 8.14002 18.2616 7.94105 17.9171C7.74207 17.5726 7.6881 17.1631 7.791 16.7788L8.033 15.8718C7.44777 15.6232 6.88869 15.317 6.364 14.9578L5.354 15.9678C5.2157 16.1112 5.05023 16.2255 4.86727 16.3042C4.6843 16.3829 4.48749 16.4244 4.28832 16.4262C4.08915 16.428 3.89162 16.3902 3.70724 16.3148C3.52286 16.2395 3.35533 16.1282 3.21442 15.9874C3.07352 15.8466 2.96206 15.6792 2.88655 15.4949C2.81104 15.3106 2.773 15.1131 2.77463 14.9139C2.77627 14.7148 2.81756 14.5179 2.89608 14.3349C2.97461 14.1518 3.0888 13.9863 3.232 13.8478L4.192 12.8878C3.46223 11.9173 2.91344 10.8231 2.572 9.65782C2.52451 9.51013 2.50022 9.35597 2.5 9.20083Z" fill="#FF5E00"/>
</svg>
