<svg width="24" height="25" viewBox="0 0 24 25" fill="none" xmlns="http://www.w3.org/2000/svg">
<path opacity="0.5" d="M2 16.2008C2 13.3728 2 11.9578 2.879 11.0798C3.757 10.2008 5.172 10.2008 8 10.2008H16C18.828 10.2008 20.243 10.2008 21.121 11.0798C22 11.9578 22 13.3728 22 16.2008C22 19.0288 22 20.4438 21.121 21.3218C20.243 22.2008 18.828 22.2008 16 22.2008H8C5.172 22.2008 3.757 22.2008 2.879 21.3218C2 20.4438 2 19.0288 2 16.2008Z" fill="#7F8690"/>
<path d="M8 17.2008C8.26522 17.2008 8.51957 17.0954 8.70711 16.9079C8.89464 16.7204 9 16.466 9 16.2008C9 15.9356 8.89464 15.6812 8.70711 15.4937C8.51957 15.3062 8.26522 15.2008 8 15.2008C7.73478 15.2008 7.48043 15.3062 7.29289 15.4937C7.10536 15.6812 7 15.9356 7 16.2008C7 16.466 7.10536 16.7204 7.29289 16.9079C7.48043 17.0954 7.73478 17.2008 8 17.2008ZM12 17.2008C12.2652 17.2008 12.5196 17.0954 12.7071 16.9079C12.8946 16.7204 13 16.466 13 16.2008C13 15.9356 12.8946 15.6812 12.7071 15.4937C12.5196 15.3062 12.2652 15.2008 12 15.2008C11.7348 15.2008 11.4804 15.3062 11.2929 15.4937C11.1054 15.6812 11 15.9356 11 16.2008C11 16.466 11.1054 16.7204 11.2929 16.9079C11.4804 17.0954 11.7348 17.2008 12 17.2008ZM17 16.2008C17 16.466 16.8946 16.7204 16.7071 16.9079C16.5196 17.0954 16.2652 17.2008 16 17.2008C15.7348 17.2008 15.4804 17.0954 15.2929 16.9079C15.1054 16.7204 15 16.466 15 16.2008C15 15.9356 15.1054 15.6812 15.2929 15.4937C15.4804 15.3062 15.7348 15.2008 16 15.2008C16.2652 15.2008 16.5196 15.3062 16.7071 15.4937C16.8946 15.6812 17 15.9356 17 16.2008ZM6.75 8.20081C6.75 6.80842 7.30312 5.47306 8.28769 4.48849C9.27225 3.50393 10.6076 2.95081 12 2.95081C13.3924 2.95081 14.7277 3.50393 15.7123 4.48849C16.6969 5.47306 17.25 6.80842 17.25 8.20081V10.2048C17.817 10.2098 18.314 10.2228 18.75 10.2548V8.20081C18.75 6.41059 18.0388 4.69371 16.773 3.42783C15.5071 2.16196 13.7902 1.45081 12 1.45081C10.2098 1.45081 8.4929 2.16196 7.22703 3.42783C5.96116 4.69371 5.25 6.41059 5.25 8.20081V10.2558C5.74935 10.2232 6.24959 10.2062 6.75 10.2048V8.20081Z" fill="#9F9F9F"/>
</svg>
