<svg width="44" height="60" viewBox="0 0 44 60" fill="none" xmlns="http://www.w3.org/2000/svg">
<path d="M2.11621 37.7275V20.2603H7.64382L7.82807 21.7712C8.54052 21.2798 9.43722 20.8499 10.5182 20.4814C11.5991 20.0883 12.7538 19.8918 13.9821 19.8918C16.2423 19.8918 17.8883 20.4323 18.9201 21.5132C19.9519 22.5942 20.4679 24.2648 20.4679 26.5249V37.7275H14.5349V27.004C14.5349 26.0213 14.3261 25.3211 13.9084 24.9035C13.4908 24.4859 12.7415 24.277 11.6605 24.277C11.0218 24.277 10.3708 24.4244 9.70745 24.7192C9.04414 25.0141 8.49138 25.3826 8.04917 25.8248V37.7275H2.11621ZM30.039 38.096C27.9753 38.096 26.3662 37.5187 25.2115 36.3641C24.0569 35.1848 23.4795 33.4774 23.4795 31.2418V20.2603H29.4125V30.9102C29.4125 31.8928 29.6459 32.6176 30.1127 33.0844C30.604 33.5266 31.3287 33.7477 32.2869 33.7477C32.9993 33.7477 33.6749 33.6003 34.3136 33.3055C34.9524 33.0107 35.4806 32.6421 35.8982 32.1999V20.2603H41.8312V37.7275H36.3036L36.1193 36.2535C35.4069 36.794 34.547 37.2362 33.5398 37.5801C32.5325 37.9241 31.3656 38.096 30.039 38.096ZM12.9518 59.096C9.90543 59.096 7.461 58.3467 5.61847 56.8482C3.77593 55.325 2.85467 53.0402 2.85467 49.9939C2.85467 47.2178 3.61625 45.0068 5.13941 43.3608C6.66257 41.7148 8.94731 40.8918 11.9936 40.8918C14.7697 40.8918 16.9193 41.6043 18.4425 43.0291C19.9657 44.454 20.7273 46.3703 20.7273 48.7779V51.9102H8.34542C8.61566 53.0648 9.24212 53.8755 10.2248 54.3423C11.2321 54.7845 12.5955 55.0056 14.3152 55.0056C15.2733 55.0056 16.2438 54.9196 17.2264 54.7477C18.2337 54.5757 19.069 54.3546 19.7323 54.0844V57.9537C18.897 58.3467 17.902 58.6293 16.7474 58.8012C15.5927 58.9978 14.3275 59.096 12.9518 59.096ZM8.34542 48.483H15.5682V47.7092C15.5682 46.8493 15.3102 46.1737 14.7943 45.6824C14.2784 45.1665 13.4062 44.9085 12.1779 44.9085C10.753 44.9085 9.75803 45.2033 9.19299 45.7929C8.62794 46.358 8.34542 47.2547 8.34542 48.483ZM27.8832 58.7275L20.9921 41.2603H27.183L31.0155 52.6103L34.8848 41.2603H41.0757L34.1847 58.7275H27.8832Z" fill="#FF5E00"/>
<path d="M27.3827 15.7583C28.3459 12.6084 29.076 10.9227 30.6582 8.13765C30.911 11.4562 32.1344 13.0352 33.7351 14.846C34.3702 9.45776 34.8401 6.40858 36.812 1C38.6668 7.02568 37.492 15.5198 41.725 17.9587C36.812 18.932 29.2008 15.5198 26.291 15.7583" stroke="#FF5E00" stroke-width="0.458083" stroke-linecap="round" stroke-linejoin="round"/>
</svg>
