<svg width="139" height="35" viewBox="0 0 139 35" fill="none" xmlns="http://www.w3.org/2000/svg">
<path d="M10.552 29.5967L13.2002 23.2309L7.94178 17.4897L15.106 10.2143L22.5863 17.5672L26.9292 13.1562L17.0498 2.88342H12.829L0 16.2678V19.2113L10.552 29.5967Z" fill="#0029FF"/>
<path d="M43.7369 4.74557L41.4598 11.7011L46.3471 16.8526L38.9181 24.8406L31.1941 17.2116L26.8411 21.6028L37.239 31.4589H41.4598L54.2889 18.0745V15.131L43.7369 4.74557Z" fill="#0029FF"/>
<path d="M41.3975 2.40582L43.7373 4.74469L16.9258 32.2916L13.2607 32.3033L10.5518 29.5943L37.5938 2.40582H41.3975Z" fill="black"/>
<path d="M64.1917 24.3766C63.1227 24.3766 62.1708 24.1935 61.336 23.8274C60.5012 23.4613 59.8422 22.9634 59.3589 22.3336C58.8757 21.6893 58.6047 20.9717 58.5462 20.1809H62.2586C62.3026 20.6056 62.5003 20.9497 62.8517 21.2133C63.2032 21.4769 63.6352 21.6087 64.1478 21.6087C64.6164 21.6087 64.9752 21.5209 65.2242 21.3451C65.4878 21.1547 65.6196 20.9131 65.6196 20.6202C65.6196 20.2687 65.4365 20.0124 65.0704 19.8513C64.7043 19.6756 64.1112 19.4852 63.2911 19.2802C62.4124 19.0752 61.6801 18.8628 61.0944 18.6432C60.5086 18.4088 60.0033 18.05 59.5786 17.5668C59.1539 17.0688 58.9416 16.4025 58.9416 15.5677C58.9416 14.8648 59.1319 14.2277 59.5127 13.6566C59.9081 13.0708 60.4793 12.6095 61.2262 12.2726C61.9877 11.9358 62.8883 11.7674 63.9281 11.7674C65.4658 11.7674 66.674 12.1482 67.5527 12.9097C68.4461 13.6712 68.9586 14.6817 69.0904 15.9412H65.6196C65.561 15.5165 65.3706 15.1796 65.0485 14.9307C64.7409 14.6817 64.3309 14.5572 63.8183 14.5572C63.3789 14.5572 63.0421 14.6451 62.8078 14.8208C62.5735 14.9819 62.4563 15.2089 62.4563 15.5018C62.4563 15.8533 62.6394 16.1169 63.0055 16.2927C63.3863 16.4684 63.9721 16.6441 64.7629 16.8199C65.6709 17.0542 66.4104 17.2885 66.9816 17.5228C67.5527 17.7425 68.0507 18.1086 68.4754 18.6212C68.9147 19.1191 69.1417 19.7928 69.1563 20.6422C69.1563 21.3598 68.9513 22.0041 68.5413 22.5753C68.1458 23.1318 67.5674 23.5711 66.8058 23.8933C66.059 24.2155 65.1876 24.3766 64.1917 24.3766ZM83.0093 17.8743C83.0093 18.2258 82.9873 18.5919 82.9434 18.9727H74.442C74.5006 19.7342 74.7423 20.32 75.167 20.73C75.6063 21.1255 76.1408 21.3232 76.7706 21.3232C77.7078 21.3232 78.3595 20.9277 78.7257 20.1369H82.7237C82.5187 20.9424 82.1452 21.6673 81.6034 22.3117C81.0761 22.9561 80.4098 23.4613 79.6043 23.8274C78.7989 24.1935 77.8982 24.3766 76.9024 24.3766C75.7015 24.3766 74.6324 24.1203 73.6952 23.6078C72.7579 23.0952 72.0256 22.3629 71.4984 21.411C70.9712 20.4591 70.7076 19.3461 70.7076 18.072C70.7076 16.7979 70.9639 15.6849 71.4765 14.733C72.0037 13.7811 72.7359 13.0488 73.6732 12.5363C74.6105 12.0237 75.6868 11.7674 76.9024 11.7674C78.0886 11.7674 79.143 12.0164 80.0657 12.5143C80.9883 13.0122 81.7059 13.7225 82.2184 14.6451C82.7457 15.5677 83.0093 16.6441 83.0093 17.8743ZM79.165 16.8858C79.165 16.2414 78.9453 15.7288 78.506 15.3481C78.0666 14.9673 77.5175 14.7769 76.8584 14.7769C76.2287 14.7769 75.6942 14.96 75.2548 15.3261C74.8301 15.6922 74.5665 16.2121 74.464 16.8858H79.165ZM92.4598 11.8113C93.895 11.8113 95.0373 12.28 95.8867 13.2172C96.7508 14.1399 97.1828 15.414 97.1828 17.0395V24.2009H93.4483V17.5448C93.4483 16.7247 93.236 16.0876 92.8113 15.6336C92.3866 15.1796 91.8154 14.9527 91.0979 14.9527C90.3803 14.9527 89.8091 15.1796 89.3844 15.6336C88.9597 16.0876 88.7474 16.7247 88.7474 17.5448V24.2009H84.991V11.9431H88.7474V13.5687C89.1281 13.0269 89.6407 12.6022 90.2851 12.2946C90.9294 11.9724 91.6544 11.8113 92.4598 11.8113ZM106.625 21.0156V24.2009H104.714C103.352 24.2009 102.29 23.8714 101.529 23.2123C100.767 22.5387 100.386 21.4476 100.386 19.9392V15.0625H98.8925V11.9431H100.386V8.95559H104.143V11.9431H106.603V15.0625H104.143V19.9832C104.143 20.3493 104.23 20.6129 104.406 20.774C104.582 20.9351 104.875 21.0156 105.285 21.0156H106.625ZM112.474 13.9861C112.913 13.3124 113.462 12.7852 114.121 12.4044C114.78 12.009 115.513 11.8113 116.318 11.8113V15.7874H115.286C114.348 15.7874 113.645 15.9924 113.177 16.4025C112.708 16.7979 112.474 17.5009 112.474 18.5113V24.2009H108.717V11.9431H112.474V13.9861ZM120.003 10.669C119.344 10.669 118.802 10.4787 118.377 10.0979C117.967 9.70248 117.762 9.2192 117.762 8.64805C117.762 8.06226 117.967 7.57898 118.377 7.19821C118.802 6.8028 119.344 6.60509 120.003 6.60509C120.647 6.60509 121.174 6.8028 121.584 7.19821C122.009 7.57898 122.221 8.06226 122.221 8.64805C122.221 9.2192 122.009 9.70248 121.584 10.0979C121.174 10.4787 120.647 10.669 120.003 10.669ZM121.87 11.9431V24.2009H118.113V11.9431H121.87Z" fill="#0020F6"/>
<path d="M134.038 24.2009L130.897 19.4779L128.129 24.2009H123.867L128.81 16.3586L123.757 8.77985H128.129L131.226 13.4369L133.95 8.77985H138.212L133.313 16.5563L138.409 24.2009H134.038Z" fill="black"/>
<path d="M60.3519 32.5497C60.0794 32.5497 59.8345 32.5023 59.6173 32.4075C59.4041 32.3088 59.2362 32.1745 59.1138 32.0047C58.9914 31.8309 58.9282 31.6315 58.9242 31.4064H59.4988C59.5186 31.5999 59.5976 31.7638 59.7358 31.8981C59.878 32.0284 60.0833 32.0936 60.3519 32.0936C60.6086 32.0936 60.81 32.0304 60.9561 31.904C61.1062 31.7737 61.1812 31.6078 61.1812 31.4064C61.1812 31.2484 61.1378 31.1201 61.0509 31.0214C60.964 30.9226 60.8554 30.8476 60.7251 30.7962C60.5948 30.7449 60.419 30.6896 60.1979 30.6304C59.9254 30.5593 59.7062 30.4882 59.5403 30.4171C59.3784 30.346 59.2382 30.2355 59.1197 30.0854C59.0052 29.9314 58.9479 29.726 58.9479 29.4693C58.9479 29.2442 59.0052 29.0448 59.1197 28.871C59.2342 28.6972 59.3942 28.563 59.5995 28.4682C59.8089 28.3734 60.0478 28.326 60.3163 28.326C60.7034 28.326 61.0193 28.4228 61.2642 28.6163C61.513 28.8098 61.6532 29.0665 61.6847 29.3864H61.0924C61.0726 29.2284 60.9897 29.0902 60.8436 28.9717C60.6974 28.8493 60.5039 28.7881 60.263 28.7881C60.0379 28.7881 59.8543 28.8473 59.7121 28.9658C59.5699 29.0803 59.4988 29.2422 59.4988 29.4515C59.4988 29.6016 59.5403 29.724 59.6232 29.8188C59.7101 29.9136 59.8148 29.9867 59.9372 30.038C60.0636 30.0854 60.2393 30.1407 60.4644 30.2039C60.7369 30.2789 60.9561 30.3539 61.122 30.429C61.2878 30.5001 61.43 30.6126 61.5485 30.7666C61.667 30.9167 61.7262 31.1221 61.7262 31.3827C61.7262 31.5841 61.6729 31.7737 61.5663 31.9514C61.4596 32.1291 61.3017 32.2733 61.0924 32.3838C60.8831 32.4944 60.6362 32.5497 60.3519 32.5497ZM67.0157 29.2027C67.2685 29.2027 67.4936 29.256 67.691 29.3627C67.8885 29.4654 68.0445 29.6213 68.159 29.8307C68.2735 30.04 68.3308 30.2947 68.3308 30.5948V32.5082H67.7977V30.6718C67.7977 30.348 67.7167 30.1012 67.5548 29.9314C67.3968 29.7576 67.1816 29.6707 66.9091 29.6707C66.6287 29.6707 66.4055 29.7615 66.2397 29.9432C66.0738 30.1209 65.9909 30.3796 65.9909 30.7192V32.5082H65.4577V30.6718C65.4577 30.348 65.3768 30.1012 65.2149 29.9314C65.0569 29.7576 64.8417 29.6707 64.5692 29.6707C64.2888 29.6707 64.0656 29.7615 63.8998 29.9432C63.7339 30.1209 63.651 30.3796 63.651 30.7192V32.5082H63.1119V29.262H63.651V29.73C63.7576 29.5601 63.8998 29.4298 64.0775 29.339C64.2591 29.2481 64.4586 29.2027 64.6758 29.2027C64.9483 29.2027 65.1892 29.2639 65.3985 29.3864C65.6078 29.5088 65.7638 29.6885 65.8665 29.9254C65.9573 29.6964 66.1074 29.5187 66.3167 29.3923C66.526 29.2659 66.759 29.2027 67.0157 29.2027ZM69.6061 30.8733C69.6061 30.5415 69.6732 30.2513 69.8075 30.0024C69.9417 29.7497 70.1254 29.5542 70.3584 29.416C70.5953 29.2778 70.858 29.2087 71.1463 29.2087C71.4306 29.2087 71.6774 29.2699 71.8867 29.3923C72.096 29.5147 72.252 29.6687 72.3547 29.8544V29.262H72.8997V32.5082H72.3547V31.904C72.2481 32.0936 72.0881 32.2515 71.8749 32.3779C71.6656 32.5003 71.4207 32.5616 71.1403 32.5616C70.852 32.5616 70.5914 32.4905 70.3584 32.3483C70.1254 32.2061 69.9417 32.0067 69.8075 31.75C69.6732 31.4933 69.6061 31.201 69.6061 30.8733ZM72.3547 30.8792C72.3547 30.6343 72.3054 30.4211 72.2066 30.2394C72.1079 30.0577 71.9736 29.9195 71.8038 29.8247C71.6379 29.726 71.4543 29.6766 71.2529 29.6766C71.0515 29.6766 70.8678 29.724 70.702 29.8188C70.5361 29.9136 70.4038 30.0518 70.3051 30.2335C70.2063 30.4151 70.157 30.6284 70.157 30.8733C70.157 31.1221 70.2063 31.3393 70.3051 31.5249C70.4038 31.7065 70.5361 31.8467 70.702 31.9455C70.8678 32.0403 71.0515 32.0876 71.2529 32.0876C71.4543 32.0876 71.6379 32.0403 71.8038 31.9455C71.9736 31.8467 72.1079 31.7065 72.2066 31.5249C72.3054 31.3393 72.3547 31.124 72.3547 30.8792ZM74.9421 29.7892C75.0369 29.6036 75.1712 29.4594 75.345 29.3567C75.5227 29.2541 75.7379 29.2027 75.9907 29.2027V29.7596H75.8485C75.2443 29.7596 74.9421 30.0874 74.9421 30.7429V32.5082H74.4031V29.262H74.9421V29.7892ZM77.8629 29.7063V31.6197C77.8629 31.7776 77.8965 31.8902 77.9636 31.9573C78.0307 32.0205 78.1472 32.0521 78.3131 32.0521H78.71V32.5082H78.2242C77.9241 32.5082 77.699 32.4391 77.5489 32.3009C77.3989 32.1627 77.3238 31.9356 77.3238 31.6197V29.7063H76.9032V29.262H77.3238V28.4445H77.8629V29.262H78.71V29.7063H77.8629ZM83.4127 28.3793C83.8629 28.3793 84.2519 28.4642 84.5797 28.634C84.9114 28.7999 85.1642 29.0388 85.338 29.3508C85.5157 29.6628 85.6045 30.0301 85.6045 30.4527C85.6045 30.8752 85.5157 31.2425 85.338 31.5545C85.1642 31.8625 84.9114 32.0995 84.5797 32.2654C84.2519 32.4273 83.8629 32.5082 83.4127 32.5082H82.1272V28.3793H83.4127ZM83.4127 32.064C83.9459 32.064 84.3526 31.9238 84.633 31.6434C84.9134 31.359 85.0536 30.9621 85.0536 30.4527C85.0536 29.9393 84.9114 29.5384 84.6271 29.2501C84.3467 28.9618 83.9419 28.8177 83.4127 28.8177H82.6663V32.064H83.4127ZM87.1864 28.7347C87.0837 28.7347 86.9968 28.6992 86.9257 28.6281C86.8547 28.557 86.8191 28.4701 86.8191 28.3675C86.8191 28.2648 86.8547 28.1779 86.9257 28.1068C86.9968 28.0357 87.0837 28.0002 87.1864 28.0002C87.2851 28.0002 87.3681 28.0357 87.4352 28.1068C87.5063 28.1779 87.5418 28.2648 87.5418 28.3675C87.5418 28.4701 87.5063 28.557 87.4352 28.6281C87.3681 28.6992 87.2851 28.7347 87.1864 28.7347ZM87.447 29.262V32.5082H86.908V29.262H87.447ZM90.297 29.2087C90.5774 29.2087 90.8222 29.2699 91.0315 29.3923C91.2448 29.5147 91.4028 29.6687 91.5054 29.8544V29.262H92.0504V32.5793C92.0504 32.8755 91.9872 33.1381 91.8609 33.3672C91.7345 33.6002 91.5528 33.7819 91.3159 33.9122C91.0829 34.0425 90.8104 34.1077 90.4984 34.1077C90.0719 34.1077 89.7164 34.007 89.4321 33.8056C89.1477 33.6042 88.9799 33.3297 88.9286 32.9821H89.4617C89.5209 33.1796 89.6434 33.3376 89.829 33.4561C90.0146 33.5785 90.2377 33.6397 90.4984 33.6397C90.7946 33.6397 91.0355 33.5469 91.2211 33.3613C91.4107 33.1757 91.5054 32.915 91.5054 32.5793V31.8981C91.3988 32.0876 91.2408 32.2456 91.0315 32.372C90.8222 32.4984 90.5774 32.5616 90.297 32.5616C90.0087 32.5616 89.746 32.4905 89.5091 32.3483C89.2761 32.2061 89.0924 32.0067 88.9582 31.75C88.8239 31.4933 88.7568 31.201 88.7568 30.8733C88.7568 30.5415 88.8239 30.2513 88.9582 30.0024C89.0924 29.7497 89.2761 29.5542 89.5091 29.416C89.746 29.2778 90.0087 29.2087 90.297 29.2087ZM91.5054 30.8792C91.5054 30.6343 91.4561 30.4211 91.3573 30.2394C91.2586 30.0577 91.1243 29.9195 90.9545 29.8247C90.7886 29.726 90.605 29.6766 90.4036 29.6766C90.2022 29.6766 90.0185 29.724 89.8527 29.8188C89.6868 29.9136 89.5545 30.0518 89.4558 30.2335C89.357 30.4151 89.3077 30.6284 89.3077 30.8733C89.3077 31.1221 89.357 31.3393 89.4558 31.5249C89.5545 31.7065 89.6868 31.8467 89.8527 31.9455C90.0185 32.0403 90.2022 32.0876 90.4036 32.0876C90.605 32.0876 90.7886 32.0403 90.9545 31.9455C91.1243 31.8467 91.2586 31.7065 91.3573 31.5249C91.4561 31.3393 91.5054 31.124 91.5054 30.8792ZM93.8322 28.7347C93.7295 28.7347 93.6426 28.6992 93.5716 28.6281C93.5005 28.557 93.4649 28.4701 93.4649 28.3675C93.4649 28.2648 93.5005 28.1779 93.5716 28.1068C93.6426 28.0357 93.7295 28.0002 93.8322 28.0002C93.9309 28.0002 94.0139 28.0357 94.081 28.1068C94.1521 28.1779 94.1876 28.2648 94.1876 28.3675C94.1876 28.4701 94.1521 28.557 94.081 28.6281C94.0139 28.6992 93.9309 28.7347 93.8322 28.7347ZM94.0929 29.262V32.5082H93.5538V29.262H94.0929ZM96.2615 29.7063V31.6197C96.2615 31.7776 96.2951 31.8902 96.3623 31.9573C96.4294 32.0205 96.5459 32.0521 96.7118 32.0521H97.1087V32.5082H96.6229C96.3228 32.5082 96.0977 32.4391 95.9476 32.3009C95.7975 32.1627 95.7225 31.9356 95.7225 31.6197V29.7063H95.3019V29.262H95.7225V28.4445H96.2615V29.262H97.1087V29.7063H96.2615ZM98.1528 30.8733C98.1528 30.5415 98.2199 30.2513 98.3542 30.0024C98.4885 29.7497 98.6721 29.5542 98.9051 29.416C99.1421 29.2778 99.4047 29.2087 99.693 29.2087C99.9773 29.2087 100.224 29.2699 100.433 29.3923C100.643 29.5147 100.799 29.6687 100.901 29.8544V29.262H101.446V32.5082H100.901V31.904C100.795 32.0936 100.635 32.2515 100.422 32.3779C100.212 32.5003 99.9675 32.5616 99.6871 32.5616C99.3988 32.5616 99.1381 32.4905 98.9051 32.3483C98.6721 32.2061 98.4885 32.0067 98.3542 31.75C98.2199 31.4933 98.1528 31.201 98.1528 30.8733ZM100.901 30.8792C100.901 30.6343 100.852 30.4211 100.753 30.2394C100.655 30.0577 100.52 29.9195 100.351 29.8247C100.185 29.726 100.001 29.6766 99.7996 29.6766C99.5982 29.6766 99.4146 29.724 99.2487 29.8188C99.0828 29.9136 98.9505 30.0518 98.8518 30.2335C98.7531 30.4151 98.7037 30.6284 98.7037 30.8733C98.7037 31.1221 98.7531 31.3393 98.8518 31.5249C98.9505 31.7065 99.0828 31.8467 99.2487 31.9455C99.4146 32.0403 99.5982 32.0876 99.7996 32.0876C100.001 32.0876 100.185 32.0403 100.351 31.9455C100.52 31.8467 100.655 31.7065 100.753 31.5249C100.852 31.3393 100.901 31.124 100.901 30.8792ZM103.489 28.1246V32.5082H102.95V28.1246H103.489ZM108.481 32.5497C108.208 32.5497 107.964 32.5023 107.746 32.4075C107.533 32.3088 107.365 32.1745 107.243 32.0047C107.12 31.8309 107.057 31.6315 107.053 31.4064H107.628C107.648 31.5999 107.727 31.7638 107.865 31.8981C108.007 32.0284 108.212 32.0936 108.481 32.0936C108.738 32.0936 108.939 32.0304 109.085 31.904C109.235 31.7737 109.31 31.6078 109.31 31.4064C109.31 31.2484 109.267 31.1201 109.18 31.0214C109.093 30.9226 108.984 30.8476 108.854 30.7962C108.724 30.7449 108.548 30.6896 108.327 30.6304C108.054 30.5593 107.835 30.4882 107.669 30.4171C107.507 30.346 107.367 30.2355 107.249 30.0854C107.134 29.9314 107.077 29.726 107.077 29.4693C107.077 29.2442 107.134 29.0448 107.249 28.871C107.363 28.6972 107.523 28.563 107.729 28.4682C107.938 28.3734 108.177 28.326 108.445 28.326C108.832 28.326 109.148 28.4228 109.393 28.6163C109.642 28.8098 109.782 29.0665 109.814 29.3864H109.221C109.202 29.2284 109.119 29.0902 108.973 28.9717C108.826 28.8493 108.633 28.7881 108.392 28.7881C108.167 28.7881 107.983 28.8473 107.841 28.9658C107.699 29.0803 107.628 29.2422 107.628 29.4515C107.628 29.6016 107.669 29.724 107.752 29.8188C107.839 29.9136 107.944 29.9867 108.066 30.038C108.193 30.0854 108.368 30.1407 108.593 30.2039C108.866 30.2789 109.085 30.3539 109.251 30.429C109.417 30.5001 109.559 30.6126 109.678 30.7666C109.796 30.9167 109.855 31.1221 109.855 31.3827C109.855 31.5841 109.802 31.7737 109.695 31.9514C109.589 32.1291 109.431 32.2733 109.221 32.3838C109.012 32.4944 108.765 32.5497 108.481 32.5497ZM112.657 32.5616C112.353 32.5616 112.076 32.4924 111.827 32.3542C111.583 32.216 111.389 32.0205 111.247 31.7678C111.109 31.5111 111.039 31.2149 111.039 30.8792C111.039 30.5474 111.111 30.2552 111.253 30.0024C111.399 29.7457 111.596 29.5503 111.845 29.416C112.094 29.2778 112.372 29.2087 112.68 29.2087C112.988 29.2087 113.267 29.2778 113.516 29.416C113.764 29.5503 113.96 29.7438 114.102 29.9965C114.248 30.2493 114.321 30.5435 114.321 30.8792C114.321 31.2149 114.246 31.5111 114.096 31.7678C113.95 32.0205 113.751 32.216 113.498 32.3542C113.245 32.4924 112.965 32.5616 112.657 32.5616ZM112.657 32.0876C112.85 32.0876 113.032 32.0422 113.202 31.9514C113.372 31.8606 113.508 31.7243 113.61 31.5427C113.717 31.361 113.77 31.1398 113.77 30.8792C113.77 30.6185 113.719 30.3974 113.616 30.2157C113.514 30.034 113.379 29.8998 113.214 29.8129C113.048 29.7221 112.868 29.6766 112.674 29.6766C112.477 29.6766 112.295 29.7221 112.129 29.8129C111.968 29.8998 111.837 30.034 111.738 30.2157C111.64 30.3974 111.59 30.6185 111.59 30.8792C111.59 31.1438 111.638 31.3669 111.733 31.5486C111.831 31.7302 111.962 31.8665 112.124 31.9573C112.285 32.0442 112.463 32.0876 112.657 32.0876ZM116.162 28.1246V32.5082H115.622V28.1246H116.162ZM120.552 29.262V32.5082H120.013V32.0284C119.91 32.1943 119.766 32.3246 119.58 32.4194C119.398 32.5102 119.197 32.5556 118.976 32.5556C118.723 32.5556 118.496 32.5043 118.295 32.4016C118.093 32.295 117.933 32.137 117.815 31.9277C117.7 31.7184 117.643 31.4637 117.643 31.1635V29.262H118.176V31.0924C118.176 31.4123 118.257 31.6592 118.419 31.8329C118.581 32.0027 118.802 32.0876 119.083 32.0876C119.371 32.0876 119.598 31.9988 119.764 31.8211C119.93 31.6434 120.013 31.3847 120.013 31.045V29.262H120.552ZM122.712 29.7063V31.6197C122.712 31.7776 122.745 31.8902 122.812 31.9573C122.88 32.0205 122.996 32.0521 123.162 32.0521H123.559V32.5082H123.073C122.773 32.5082 122.548 32.4391 122.398 32.3009C122.248 32.1627 122.173 31.9356 122.173 31.6197V29.7063H121.752V29.262H122.173V28.4445H122.712V29.262H123.559V29.7063H122.712ZM125.083 28.7347C124.98 28.7347 124.893 28.6992 124.822 28.6281C124.751 28.557 124.716 28.4701 124.716 28.3675C124.716 28.2648 124.751 28.1779 124.822 28.1068C124.893 28.0357 124.98 28.0002 125.083 28.0002C125.182 28.0002 125.265 28.0357 125.332 28.1068C125.403 28.1779 125.438 28.2648 125.438 28.3675C125.438 28.4701 125.403 28.557 125.332 28.6281C125.265 28.6992 125.182 28.7347 125.083 28.7347ZM125.344 29.262V32.5082H124.804V29.262H125.344ZM128.27 32.5616C127.966 32.5616 127.69 32.4924 127.441 32.3542C127.196 32.216 127.003 32.0205 126.861 31.7678C126.722 31.5111 126.653 31.2149 126.653 30.8792C126.653 30.5474 126.724 30.2552 126.866 30.0024C127.013 29.7457 127.21 29.5503 127.459 29.416C127.708 29.2778 127.986 29.2087 128.294 29.2087C128.602 29.2087 128.881 29.2778 129.129 29.416C129.378 29.5503 129.574 29.7438 129.716 29.9965C129.862 30.2493 129.935 30.5435 129.935 30.8792C129.935 31.2149 129.86 31.5111 129.71 31.7678C129.564 32.0205 129.364 32.216 129.112 32.3542C128.859 32.4924 128.578 32.5616 128.27 32.5616ZM128.27 32.0876C128.464 32.0876 128.646 32.0422 128.815 31.9514C128.985 31.8606 129.122 31.7243 129.224 31.5427C129.331 31.361 129.384 31.1398 129.384 30.8792C129.384 30.6185 129.333 30.3974 129.23 30.2157C129.127 30.034 128.993 29.8998 128.827 29.8129C128.661 29.7221 128.482 29.6766 128.288 29.6766C128.091 29.6766 127.909 29.7221 127.743 29.8129C127.581 29.8998 127.451 30.034 127.352 30.2157C127.254 30.3974 127.204 30.6185 127.204 30.8792C127.204 31.1438 127.252 31.3669 127.346 31.5486C127.445 31.7302 127.575 31.8665 127.737 31.9573C127.899 32.0442 128.077 32.0876 128.27 32.0876ZM132.818 29.2027C133.213 29.2027 133.533 29.3232 133.778 29.5641C134.022 29.801 134.145 30.1446 134.145 30.5948V32.5082H133.612V30.6718C133.612 30.348 133.531 30.1012 133.369 29.9314C133.207 29.7576 132.986 29.6707 132.705 29.6707C132.421 29.6707 132.194 29.7596 132.024 29.9373C131.858 30.115 131.775 30.3737 131.775 30.7133V32.5082H131.236V29.262H131.775V29.724C131.882 29.5582 132.026 29.4298 132.208 29.339C132.393 29.2481 132.597 29.2027 132.818 29.2027ZM136.767 32.5616C136.518 32.5616 136.295 32.5201 136.098 32.4372C135.9 32.3503 135.744 32.2318 135.63 32.0817C135.515 31.9277 135.452 31.752 135.44 31.5545H135.997C136.013 31.7164 136.088 31.8487 136.222 31.9514C136.36 32.0541 136.54 32.1054 136.761 32.1054C136.966 32.1054 137.128 32.06 137.247 31.9692C137.365 31.8783 137.425 31.7638 137.425 31.6256C137.425 31.4834 137.361 31.3788 137.235 31.3116C137.109 31.2405 136.913 31.1714 136.649 31.1043C136.408 31.0411 136.21 30.9779 136.056 30.9147C135.906 30.8476 135.776 30.7508 135.665 30.6245C135.559 30.4941 135.505 30.3243 135.505 30.115C135.505 29.9491 135.555 29.7971 135.653 29.6589C135.752 29.5206 135.892 29.412 136.074 29.3331C136.256 29.2501 136.463 29.2087 136.696 29.2087C137.055 29.2087 137.346 29.2995 137.567 29.4811C137.788 29.6628 137.906 29.9116 137.922 30.2276H137.383C137.371 30.0577 137.302 29.9215 137.176 29.8188C137.053 29.7161 136.887 29.6648 136.678 29.6648C136.485 29.6648 136.331 29.7063 136.216 29.7892C136.102 29.8721 136.044 29.9807 136.044 30.115C136.044 30.2216 136.078 30.3105 136.145 30.3816C136.216 30.4487 136.303 30.504 136.406 30.5474C136.512 30.5869 136.658 30.6324 136.844 30.6837C137.077 30.7469 137.267 30.8101 137.413 30.8733C137.559 30.9325 137.683 31.0233 137.786 31.1458C137.893 31.2682 137.948 31.4281 137.952 31.6256C137.952 31.8033 137.902 31.9632 137.804 32.1054C137.705 32.2476 137.565 32.3601 137.383 32.4431C137.205 32.5221 137 32.5616 136.767 32.5616Z" fill="black"/>
</svg>
